include "hUGE.inc"

SECTION "_tetris_music Song Data", ROMX

_tetris_music::
db 7
dw order_cnt
dw order1, order2, order3, order4
dw duty_instruments, wave_instruments, noise_instruments
dw routines
dw waves

order_cnt: db 40
order1: dw P0,P1,P2,P3,P2,P3,P4,P5,P6,P7,P4,P5,P8,P9,P10,P11,P12,P13,P14,P15
order2: dw P16,P17,P18,P19,P18,P19,P20,P21,P22,P23,P20,P21,P24,P25,P26,P27,P28,P29,P30,P31
order3: dw P32,P33,P34,P35,P34,P35,P36,P36,P34,P35,P36,P36,P40,P40,P42,P42,P36,P45,P32,P47
order4: dw P48,P49,P50,P50,P50,P50,P52,P53,P50,P53,P52,P53,P56,P50,P52,P53,P52,P53,P56,P48

P0:
 dn ___,0,$000
 dn ___,0,$000
 dn ___,0,$000
 dn ___,0,$000
 dn C_5,1,$000
 dn ___,0,$000
 dn ___,0,$000
 dn ___,0,$000
 dn ___,0,$000
 dn ___,0,$000
 dn ___,0,$000
 dn ___,0,$000
 dn A_4,1,$000
 dn ___,0,$000
 dn ___,0,$000
 dn ___,0,$000
 dn D_5,1,$000
 dn ___,0,$000
 dn ___,0,$000
 dn ___,0,$000
 dn ___,0,$000
 dn ___,0,$000
 dn ___,0,$000
 dn ___,0,$000
 dn C_5,1,$000
 dn ___,0,$000
 dn ___,0,$000
 dn ___,0,$000
 dn ___,0,$000
 dn ___,0,$000
 dn ___,0,$000
 dn ___,0,$000
 dn A#4,1,$000
 dn ___,0,$000
 dn ___,0,$000
 dn ___,0,$000
 dn ___,0,$000
 dn ___,0,$000
 dn ___,0,$000
 dn ___,0,$000
 dn A_4,1,$000
 dn ___,0,$000
 dn ___,0,$000
 dn ___,0,$000
 dn ___,0,$000
 dn ___,0,$000
 dn ___,0,$000
 dn ___,0,$000
 dn G_4,1,$000
 dn ___,0,$000
 dn ___,0,$000
 dn ___,0,$000
 dn ___,0,$000
 dn ___,0,$000
 dn ___,0,$000
 dn ___,0,$000
 dn F_4,1,$000
 dn ___,0,$000
 dn ___,0,$000
 dn ___,0,$000
 dn ___,0,$000
 dn ___,0,$000
 dn ___,0,$000
 dn ___,0,$000

P1:
 dn A_4,1,$000
 dn ___,0,$000
 dn ___,0,$000
 dn ___,0,$000
 dn G_4,1,$000
 dn ___,0,$000
 dn ___,0,$000
 dn ___,0,$000
 dn F_4,1,$000
 dn ___,0,$000
 dn ___,0,$000
 dn ___,0,$000
 dn A_4,1,$000
 dn ___,0,$000
 dn ___,0,$000
 dn ___,0,$000
 dn D_4,1,$000
 dn ___,0,$000
 dn ___,0,$000
 dn ___,0,$000
 dn ___,0,$000
 dn ___,0,$000
 dn ___,0,$000
 dn ___,0,$000
 dn F_4,1,$000
 dn ___,0,$000
 dn ___,0,$000
 dn ___,0,$000
 dn ___,0,$000
 dn ___,0,$000
 dn ___,0,$000
 dn ___,0,$000
 dn E_4,1,$000
 dn ___,0,$000
 dn ___,0,$000
 dn ___,0,$000
 dn G_4,1,$000
 dn ___,0,$000
 dn ___,0,$000
 dn ___,0,$000
 dn C_5,1,$000
 dn ___,0,$000
 dn ___,0,$000
 dn ___,0,$000
 dn ___,0,$000
 dn ___,0,$000
 dn ___,0,$000
 dn ___,0,$000
 dn A#4,1,$000
 dn ___,0,$000
 dn ___,0,$000
 dn ___,0,$000
 dn A_4,1,$000
 dn ___,0,$000
 dn ___,0,$000
 dn ___,0,$000
 dn G_4,1,$000
 dn ___,0,$000
 dn ___,0,$000
 dn ___,0,$000
 dn F_4,1,$000
 dn ___,0,$000
 dn ___,0,$000
 dn ___,0,$000

P2:
 dn C_5,1,$000
 dn ___,0,$000
 dn ___,0,$000
 dn A_4,1,$000
 dn ___,0,$000
 dn ___,0,$000
 dn D_5,1,$000
 dn ___,0,$000
 dn C_5,1,$000
 dn ___,0,$000
 dn ___,0,$000
 dn A_4,1,$000
 dn ___,0,$000
 dn ___,0,$000
 dn D_5,1,$000
 dn ___,0,$000
 dn C_5,1,$000
 dn ___,0,$000
 dn ___,0,$000
 dn ___,0,$000
 dn ___,0,$000
 dn ___,0,$000
 dn C_5,1,$000
 dn ___,0,$000
 dn A#4,1,$000
 dn ___,0,$000
 dn C_5,1,$000
 dn ___,0,$000
 dn A#4,1,$000
 dn ___,0,$000
 dn ___,0,$000
 dn ___,0,$000
 dn F_4,1,$000
 dn ___,0,$000
 dn ___,0,$000
 dn ___,0,$000
 dn G_4,1,$000
 dn ___,0,$000
 dn ___,0,$000
 dn ___,0,$000
 dn A#4,1,$000
 dn ___,0,$000
 dn ___,0,$000
 dn ___,0,$000
 dn ___,0,$000
 dn ___,0,$000
 dn ___,0,$000
 dn ___,0,$000
 dn A_4,1,$000
 dn ___,0,$000
 dn ___,0,$000
 dn ___,0,$000
 dn ___,0,$000
 dn ___,0,$000
 dn ___,0,$000
 dn ___,0,$000
 dn ___,0,$000
 dn ___,0,$000
 dn ___,0,$000
 dn ___,0,$000
 dn ___,0,$000
 dn ___,0,$000
 dn ___,0,$000
 dn ___,0,$000

P3:
 dn G_4,1,$000
 dn ___,0,$000
 dn ___,0,$000
 dn ___,0,$000
 dn A_4,1,$000
 dn ___,0,$000
 dn A#4,1,$000
 dn ___,0,$000
 dn C_5,1,$000
 dn ___,0,$000
 dn ___,0,$000
 dn ___,0,$000
 dn D_5,1,$000
 dn ___,0,$000
 dn C_5,1,$000
 dn ___,0,$000
 dn A#4,1,$000
 dn ___,0,$000
 dn A_4,1,$000
 dn ___,0,$000
 dn G_4,1,$000
 dn ___,0,$000
 dn ___,0,$000
 dn ___,0,$000
 dn F_4,1,$000
 dn ___,0,$000
 dn ___,0,$000
 dn ___,0,$000
 dn E_4,1,$000
 dn ___,0,$000
 dn ___,0,$000
 dn ___,0,$000
 dn F_4,1,$000
 dn ___,0,$000
 dn ___,0,$000
 dn ___,0,$000
 dn G_4,1,$000
 dn ___,0,$000
 dn ___,0,$000
 dn ___,0,$000
 dn A_4,1,$000
 dn ___,0,$000
 dn ___,0,$000
 dn ___,0,$000
 dn ___,0,$000
 dn ___,0,$000
 dn ___,0,$000
 dn ___,0,$000
 dn C_5,1,$000
 dn ___,0,$000
 dn ___,0,$000
 dn ___,0,$000
 dn A#4,1,$000
 dn ___,0,$000
 dn ___,0,$000
 dn ___,0,$000
 dn A_4,1,$000
 dn ___,0,$000
 dn ___,0,$000
 dn ___,0,$000
 dn G_4,1,$000
 dn ___,0,$000
 dn ___,0,$000
 dn ___,0,$000

P4:
 dn D_5,1,$000
 dn ___,0,$000
 dn D_5,1,$000
 dn ___,0,$000
 dn D_5,1,$000
 dn ___,0,$000
 dn D_5,1,$000
 dn ___,0,$000
 dn D_5,1,$000
 dn ___,0,$000
 dn D_5,1,$000
 dn ___,0,$000
 dn D_5,1,$000
 dn ___,0,$000
 dn C_5,1,$000
 dn ___,0,$000
 dn C_5,1,$000
 dn ___,0,$000
 dn C_5,1,$000
 dn ___,0,$000
 dn C_5,1,$000
 dn ___,0,$000
 dn C_5,1,$000
 dn ___,0,$000
 dn C_5,1,$000
 dn ___,0,$000
 dn C_5,1,$000
 dn ___,0,$000
 dn E_5,1,$000
 dn ___,0,$000
 dn C_5,1,$000
 dn ___,0,$000
 dn A#4,1,$000
 dn ___,0,$000
 dn A#4,1,$000
 dn ___,0,$000
 dn A#4,1,$000
 dn ___,0,$000
 dn A_4,1,$000
 dn ___,0,$000
 dn A#4,1,$000
 dn ___,0,$000
 dn C_5,1,$000
 dn ___,0,$000
 dn D_5,1,$000
 dn ___,0,$000
 dn C_5,1,$000
 dn ___,0,$000
 dn C_5,1,$000
 dn ___,0,$000
 dn ___,0,$000
 dn ___,0,$000
 dn A#4,1,$000
 dn ___,0,$000
 dn ___,0,$000
 dn ___,0,$000
 dn A_4,1,$000
 dn ___,0,$000
 dn ___,0,$000
 dn ___,0,$000
 dn G_4,1,$000
 dn ___,0,$000
 dn ___,0,$000
 dn ___,0,$000

P5:
 dn D_5,1,$000
 dn ___,0,$000
 dn E_5,1,$000
 dn ___,0,$000
 dn F_5,1,$000
 dn ___,0,$000
 dn ___,0,$000
 dn ___,0,$000
 dn E_5,1,$000
 dn ___,0,$000
 dn D_5,1,$000
 dn ___,0,$000
 dn C_5,1,$000
 dn ___,0,$000
 dn D_5,1,$000
 dn ___,0,$000
 dn C_5,1,$000
 dn ___,0,$000
 dn ___,0,$000
 dn ___,0,$000
 dn A_4,1,$000
 dn ___,0,$000
 dn ___,0,$000
 dn ___,0,$000
 dn F_4,1,$000
 dn ___,0,$000
 dn ___,0,$000
 dn ___,0,$000
 dn G_4,1,$000
 dn ___,0,$000
 dn A_4,1,$000
 dn ___,0,$000
 dn A#4,1,$000
 dn ___,0,$000
 dn ___,0,$000
 dn ___,0,$000
 dn A_4,1,$000
 dn ___,0,$000
 dn G_4,1,$000
 dn ___,0,$000
 dn F_4,1,$000
 dn ___,0,$000
 dn ___,0,$000
 dn ___,0,$000
 dn E_4,1,$000
 dn ___,0,$000
 dn ___,0,$000
 dn ___,0,$000
 dn E_4,1,$000
 dn ___,0,$000
 dn F_4,1,$000
 dn ___,0,$000
 dn G_4,1,$000
 dn ___,0,$000
 dn ___,0,$000
 dn ___,0,$000
 dn A_4,1,$000
 dn ___,0,$000
 dn A#4,1,$000
 dn ___,0,$000
 dn C_5,1,$000
 dn ___,0,$000
 dn ___,0,$000
 dn ___,0,$000

P6:
 dn D_5,1,$000
 dn ___,0,$000
 dn ___,0,$000
 dn F_5,1,$000
 dn ___,0,$000
 dn ___,0,$000
 dn C_5,1,$000
 dn ___,0,$000
 dn D_5,1,$000
 dn ___,0,$000
 dn ___,0,$000
 dn F_5,1,$000
 dn ___,0,$000
 dn ___,0,$000
 dn C_5,1,$000
 dn ___,0,$000
 dn D_5,1,$000
 dn ___,0,$000
 dn C_5,1,$000
 dn ___,0,$000
 dn D_5,1,$000
 dn ___,0,$000
 dn C_5,1,$000
 dn ___,0,$000
 dn A_4,1,$000
 dn ___,0,$000
 dn ___,0,$000
 dn ___,0,$000
 dn A#4,1,$000
 dn ___,0,$000
 dn C_5,1,$000
 dn ___,0,$000
 dn C_5,1,$000
 dn ___,0,$000
 dn ___,0,$000
 dn ___,0,$000
 dn ___,0,$000
 dn ___,0,$000
 dn ___,0,$000
 dn ___,0,$000
 dn A#4,1,$000
 dn ___,0,$000
 dn ___,0,$000
 dn ___,0,$000
 dn A_4,1,$000
 dn ___,0,$000
 dn ___,0,$000
 dn ___,0,$000
 dn G_4,1,$000
 dn ___,0,$000
 dn A_4,1,$000
 dn ___,0,$000
 dn A#4,1,$000
 dn ___,0,$000
 dn C_5,1,$000
 dn ___,0,$000
 dn D_5,1,$000
 dn ___,0,$000
 dn C_5,1,$000
 dn ___,0,$000
 dn A#4,1,$000
 dn ___,0,$000
 dn A_4,1,$000
 dn ___,0,$000

P7:
 dn A#4,1,$000
 dn ___,0,$000
 dn ___,0,$000
 dn ___,0,$000
 dn C_5,1,$000
 dn ___,0,$000
 dn D_5,1,$000
 dn ___,0,$000
 dn C_5,1,$000
 dn ___,0,$000
 dn ___,0,$000
 dn ___,0,$000
 dn A#4,1,$000
 dn ___,0,$000
 dn A_4,1,$000
 dn ___,0,$000
 dn G_4,1,$000
 dn ___,0,$000
 dn ___,0,$000
 dn ___,0,$000
 dn A_4,1,$000
 dn ___,0,$000
 dn ___,0,$000
 dn ___,0,$000
 dn A#4,1,$000
 dn ___,0,$000
 dn ___,0,$000
 dn ___,0,$000
 dn A_4,1,$000
 dn ___,0,$000
 dn G_4,1,$000
 dn ___,0,$000
 dn A_4,1,$000
 dn ___,0,$000
 dn ___,0,$000
 dn ___,0,$000
 dn C_5,1,$000
 dn ___,0,$000
 dn ___,0,$000
 dn ___,0,$000
 dn A#4,1,$000
 dn ___,0,$000
 dn ___,0,$000
 dn ___,0,$000
 dn ___,0,$000
 dn ___,0,$000
 dn ___,0,$000
 dn ___,0,$000
 dn A_4,1,$000
 dn ___,0,$000
 dn G_4,1,$000
 dn ___,0,$000
 dn F_4,1,$000
 dn ___,0,$000
 dn ___,0,$000
 dn ___,0,$000
 dn G_4,1,$000
 dn ___,0,$000
 dn ___,0,$000
 dn ___,0,$000
 dn A_4,1,$000
 dn ___,0,$000
 dn A#4,1,$000
 dn ___,0,$000

P8:
 dn D_4,1,$000
 dn ___,0,$000
 dn ___,0,$000
 dn ___,0,$000
 dn F_4,1,$000
 dn ___,0,$000
 dn ___,0,$000
 dn ___,0,$000
 dn A_4,1,$000
 dn ___,0,$000
 dn ___,0,$000
 dn ___,0,$000
 dn G_4,1,$000
 dn ___,0,$000
 dn F_4,1,$000
 dn ___,0,$000
 dn D_4,1,$000
 dn ___,0,$000
 dn ___,0,$000
 dn ___,0,$000
 dn E_4,1,$000
 dn ___,0,$000
 dn ___,0,$000
 dn ___,0,$000
 dn F_4,1,$000
 dn ___,0,$000
 dn ___,0,$000
 dn ___,0,$000
 dn G_4,1,$000
 dn ___,0,$000
 dn ___,0,$000
 dn ___,0,$000
 dn A#4,1,$000
 dn ___,0,$000
 dn ___,0,$000
 dn ___,0,$000
 dn A_4,1,$000
 dn ___,0,$000
 dn G_4,1,$000
 dn ___,0,$000
 dn F_4,1,$000
 dn ___,0,$000
 dn ___,0,$000
 dn ___,0,$000
 dn D_4,1,$000
 dn ___,0,$000
 dn ___,0,$000
 dn ___,0,$000
 dn C#5,1,$000
 dn ___,0,$000
 dn ___,0,$000
 dn ___,0,$000
 dn D_5,1,$000
 dn ___,0,$000
 dn ___,0,$000
 dn ___,0,$000
 dn C#5,1,$000
 dn ___,0,$000
 dn ___,0,$000
 dn ___,0,$000
 dn D_5,1,$000
 dn ___,0,$000
 dn ___,0,$000
 dn ___,0,$000

P9:
 dn A_4,1,$000
 dn ___,0,$000
 dn A#4,1,$000
 dn ___,0,$000
 dn A_4,1,$000
 dn ___,0,$000
 dn G_4,1,$000
 dn ___,0,$000
 dn F_4,1,$000
 dn ___,0,$000
 dn G_4,1,$000
 dn ___,0,$000
 dn A_4,1,$000
 dn ___,0,$000
 dn A#4,1,$000
 dn ___,0,$000
 dn C_5,1,$000
 dn ___,0,$000
 dn D_5,1,$000
 dn ___,0,$000
 dn C_5,1,$000
 dn ___,0,$000
 dn A#4,1,$000
 dn ___,0,$000
 dn A_4,1,$000
 dn ___,0,$000
 dn ___,0,$000
 dn ___,0,$000
 dn A#4,1,$000
 dn ___,0,$000
 dn C_5,1,$000
 dn ___,0,$000
 dn D_5,1,$000
 dn ___,0,$000
 dn ___,0,$000
 dn ___,0,$000
 dn C_5,1,$000
 dn ___,0,$000
 dn A#4,1,$000
 dn ___,0,$000
 dn A_4,1,$000
 dn ___,0,$000
 dn A#4,1,$000
 dn ___,0,$000
 dn C_5,1,$000
 dn ___,0,$000
 dn ___,0,$000
 dn ___,0,$000
 dn C#5,1,$000
 dn ___,0,$000
 dn D_5,1,$000
 dn ___,0,$000
 dn E_5,1,$000
 dn ___,0,$000
 dn ___,0,$000
 dn ___,0,$000
 dn D_5,1,$000
 dn ___,0,$000
 dn C#5,1,$000
 dn ___,0,$000
 dn D_5,1,$000
 dn ___,0,$000
 dn E_5,1,$000
 dn ___,0,$000

P10:
 dn D_5,1,$000
 dn ___,0,$000
 dn E_5,1,$000
 dn ___,0,$000
 dn F_5,1,$000
 dn ___,0,$000
 dn E_5,1,$000
 dn ___,0,$000
 dn D_5,1,$000
 dn ___,0,$000
 dn C_5,1,$000
 dn ___,0,$000
 dn D_5,1,$000
 dn ___,0,$000
 dn E_5,1,$000
 dn ___,0,$000
 dn E_5,1,$000
 dn ___,0,$000
 dn D_5,1,$000
 dn ___,0,$000
 dn C_5,1,$000
 dn ___,0,$000
 dn D_5,1,$000
 dn ___,0,$000
 dn E_5,1,$000
 dn ___,0,$000
 dn C_5,1,$000
 dn ___,0,$000
 dn D_5,1,$000
 dn ___,0,$000
 dn C_5,1,$000
 dn ___,0,$000
 dn A#4,1,$000
 dn ___,0,$000
 dn C_5,1,$000
 dn ___,0,$000
 dn D_5,1,$000
 dn ___,0,$000
 dn C_5,1,$000
 dn ___,0,$000
 dn A#4,1,$000
 dn ___,0,$000
 dn A_4,1,$000
 dn ___,0,$000
 dn A#4,1,$000
 dn ___,0,$000
 dn C_5,1,$000
 dn ___,0,$000
 dn C#5,1,$000
 dn ___,0,$000
 dn D_5,1,$000
 dn ___,0,$000
 dn C#5,1,$000
 dn ___,0,$000
 dn A_4,1,$000
 dn ___,0,$000
 dn A#4,1,$000
 dn ___,0,$000
 dn A_4,1,$000
 dn ___,0,$000
 dn C#5,1,$000
 dn ___,0,$000
 dn D_5,1,$000
 dn ___,0,$000

P11:
 dn D_5,1,$000
 dn ___,0,$000
 dn F_5,1,$000
 dn ___,0,$000
 dn D_5,1,$000
 dn ___,0,$000
 dn ___,0,$000
 dn ___,0,$000
 dn A_4,1,$000
 dn ___,0,$000
 dn ___,0,$000
 dn ___,0,$000
 dn A#4,1,$000
 dn ___,0,$000
 dn C_5,1,$000
 dn ___,0,$000
 dn D_5,1,$000
 dn ___,0,$000
 dn ___,0,$000
 dn ___,0,$000
 dn C_5,1,$000
 dn ___,0,$000
 dn ___,0,$000
 dn ___,0,$000
 dn A#4,1,$000
 dn ___,0,$000
 dn ___,0,$000
 dn ___,0,$000
 dn A_4,1,$000
 dn ___,0,$000
 dn ___,0,$000
 dn ___,0,$000
 dn A#4,1,$000
 dn ___,0,$000
 dn ___,0,$000
 dn ___,0,$000
 dn C_5,1,$000
 dn ___,0,$000
 dn ___,0,$000
 dn ___,0,$000
 dn D_5,1,$000
 dn ___,0,$000
 dn ___,0,$000
 dn ___,0,$000
 dn C_5,1,$000
 dn ___,0,$000
 dn ___,0,$000
 dn ___,0,$000
 dn C_5,1,$000
 dn ___,0,$000
 dn D_5,1,$000
 dn ___,0,$000
 dn C_5,1,$000
 dn ___,0,$000
 dn A#4,1,$000
 dn ___,0,$000
 dn A_4,1,$000
 dn ___,0,$000
 dn A#4,1,$000
 dn ___,0,$000
 dn C_5,1,$000
 dn ___,0,$000
 dn D_5,1,$000
 dn ___,0,$000

P12:
 dn D_5,1,$000
 dn ___,0,$000
 dn D_5,1,$000
 dn ___,0,$000
 dn D_5,1,$000
 dn ___,0,$000
 dn E_5,1,$000
 dn ___,0,$000
 dn F_5,1,$000
 dn ___,0,$000
 dn E_5,1,$000
 dn ___,0,$000
 dn D_5,1,$000
 dn ___,0,$000
 dn C_5,1,$000
 dn ___,0,$000
 dn C_5,1,$000
 dn ___,0,$000
 dn D_5,1,$000
 dn ___,0,$000
 dn E_5,1,$000
 dn ___,0,$000
 dn F_5,1,$000
 dn ___,0,$000
 dn E_5,1,$000
 dn ___,0,$000
 dn D_5,1,$000
 dn ___,0,$000
 dn C_5,1,$000
 dn ___,0,$000
 dn D_5,1,$000
 dn ___,0,$000
 dn D_5,1,$000
 dn ___,0,$000
 dn C_5,1,$000
 dn ___,0,$000
 dn A#4,1,$000
 dn ___,0,$000
 dn A_4,1,$000
 dn ___,0,$000
 dn A#4,1,$000
 dn ___,0,$000
 dn C_5,1,$000
 dn ___,0,$000
 dn D_5,1,$000
 dn ___,0,$000
 dn E_5,1,$000
 dn ___,0,$000
 dn E_5,1,$000
 dn ___,0,$000
 dn D_5,1,$000
 dn ___,0,$000
 dn C_5,1,$000
 dn ___,0,$000
 dn D_5,1,$000
 dn ___,0,$000
 dn E_5,1,$000
 dn ___,0,$000
 dn F_5,1,$000
 dn ___,0,$000
 dn E_5,1,$000
 dn ___,0,$000
 dn D_5,1,$000
 dn ___,0,$000

P13:
 dn D_5,1,$000
 dn ___,0,$000
 dn C_5,1,$000
 dn ___,0,$000
 dn D_5,1,$000
 dn ___,0,$000
 dn E_5,1,$000
 dn ___,0,$000
 dn D_5,1,$000
 dn ___,0,$000
 dn ___,0,$000
 dn ___,0,$000
 dn C_5,1,$000
 dn ___,0,$000
 dn A#4,1,$000
 dn ___,0,$000
 dn A_4,1,$000
 dn ___,0,$000
 dn ___,0,$000
 dn ___,0,$000
 dn A#4,1,$000
 dn ___,0,$000
 dn ___,0,$000
 dn ___,0,$000
 dn C_5,1,$000
 dn ___,0,$000
 dn ___,0,$000
 dn ___,0,$000
 dn D_5,1,$000
 dn ___,0,$000
 dn ___,0,$000
 dn ___,0,$000
 dn E_5,1,$000
 dn ___,0,$000
 dn ___,0,$000
 dn ___,0,$000
 dn D_5,1,$000
 dn ___,0,$000
 dn ___,0,$000
 dn ___,0,$000
 dn C_5,1,$000
 dn ___,0,$000
 dn ___,0,$000
 dn ___,0,$000
 dn D_5,1,$000
 dn ___,0,$000
 dn ___,0,$000
 dn ___,0,$000
 dn C_5,1,$000
 dn ___,0,$000
 dn A#4,1,$000
 dn ___,0,$000
 dn A_4,1,$000
 dn ___,0,$000
 dn ___,0,$000
 dn ___,0,$000
 dn F_4,1,$000
 dn ___,0,$000
 dn ___,0,$000
 dn ___,0,$000
 dn A_4,1,$000
 dn ___,0,$000
 dn C_5,1,$000
 dn ___,0,$000

P14:
 dn C_5,1,$000
 dn ___,0,$000
 dn ___,0,$000
 dn ___,0,$000
 dn ___,0,$000
 dn ___,0,$000
 dn ___,0,$000
 dn ___,0,$000
 dn A#4,1,$000
 dn ___,0,$000
 dn ___,0,$000
 dn ___,0,$000
 dn ___,0,$000
 dn ___,0,$000
 dn ___,0,$000
 dn ___,0,$000
 dn A_4,1,$000
 dn ___,0,$000
 dn ___,0,$000
 dn ___,0,$000
 dn ___,0,$000
 dn ___,0,$000
 dn ___,0,$000
 dn ___,0,$000
 dn G_4,1,$000
 dn ___,0,$000
 dn ___,0,$000
 dn ___,0,$000
 dn ___,0,$000
 dn ___,0,$000
 dn ___,0,$000
 dn ___,0,$000
 dn F_4,1,$000
 dn ___,0,$000
 dn ___,0,$000
 dn ___,0,$000
 dn ___,0,$000
 dn ___,0,$000
 dn ___,0,$000
 dn ___,0,$000
 dn G_4,1,$000
 dn ___,0,$000
 dn ___,0,$000
 dn ___,0,$000
 dn ___,0,$000
 dn ___,0,$000
 dn ___,0,$000
 dn ___,0,$000
 dn A_4,1,$000
 dn ___,0,$000
 dn ___,0,$000
 dn ___,0,$000
 dn ___,0,$000
 dn ___,0,$000
 dn ___,0,$000
 dn ___,0,$000
 dn G_4,1,$000
 dn ___,0,$000
 dn ___,0,$000
 dn ___,0,$000
 dn ___,0,$000
 dn ___,0,$000
 dn ___,0,$000
 dn ___,0,$000

P15:
 dn F_4,1,$000
 dn ___,0,$000
 dn ___,0,$000
 dn ___,0,$000
 dn ___,0,$000
 dn ___,0,$000
 dn ___,0,$000
 dn ___,0,$000
 dn A_4,1,$000
 dn ___,0,$000
 dn ___,0,$000
 dn ___,0,$000
 dn ___,0,$000
 dn ___,0,$000
 dn ___,0,$000
 dn ___,0,$000
 dn C_5,1,$000
 dn ___,0,$000
 dn ___,0,$000
 dn ___,0,$000
 dn ___,0,$000
 dn ___,0,$000
 dn ___,0,$000
 dn ___,0,$000
 dn ___,0,$000
 dn ___,0,$000
 dn ___,0,$000
 dn ___,0,$000
 dn ___,0,$000
 dn ___,0,$000
 dn ___,0,$000
 dn ___,0,$000
 dn A_4,1,$000
 dn ___,0,$000
 dn ___,0,$000
 dn ___,0,$000
 dn ___,0,$000
 dn ___,0,$000
 dn ___,0,$000
 dn ___,0,$000
 dn ___,0,$000
 dn ___,0,$000
 dn ___,0,$000
 dn ___,0,$000
 dn ___,0,$000
 dn ___,0,$000
 dn ___,0,$000
 dn ___,0,$000
 dn F_4,1,$000
 dn ___,0,$000
 dn ___,0,$000
 dn ___,0,$000
 dn ___,0,$000
 dn ___,0,$000
 dn ___,0,$000
 dn ___,0,$000
 dn ___,0,$000
 dn ___,0,$000
 dn ___,0,$000
 dn ___,0,$000
 dn ___,0,$000
 dn ___,0,$000
 dn ___,0,$000
 dn ___,0,$000

P16:
 dn ___,0,$000
 dn ___,0,$000
 dn ___,0,$000
 dn ___,0,$000
 dn ___,0,$000
 dn ___,0,$000
 dn ___,0,$000
 dn ___,0,$000
 dn ___,0,$000
 dn ___,0,$000
 dn ___,0,$000
 dn ___,0,$000
 dn ___,0,$000
 dn ___,0,$000
 dn ___,0,$000
 dn ___,0,$000
 dn ___,0,$000
 dn ___,0,$000
 dn ___,0,$000
 dn ___,0,$000
 dn ___,0,$000
 dn ___,0,$000
 dn ___,0,$000
 dn ___,0,$000
 dn ___,0,$000
 dn ___,0,$000
 dn ___,0,$000
 dn ___,0,$000
 dn ___,0,$000
 dn ___,0,$000
 dn ___,0,$000
 dn ___,0,$000
 dn ___,0,$000
 dn ___,0,$000
 dn ___,0,$000
 dn ___,0,$000
 dn ___,0,$000
 dn ___,0,$000
 dn ___,0,$000
 dn ___,0,$000
 dn ___,0,$000
 dn ___,0,$000
 dn ___,0,$000
 dn ___,0,$000
 dn ___,0,$000
 dn ___,0,$000
 dn ___,0,$000
 dn ___,0,$000
 dn ___,0,$000
 dn ___,0,$000
 dn ___,0,$000
 dn ___,0,$000
 dn ___,0,$000
 dn ___,0,$000
 dn ___,0,$000
 dn ___,0,$000
 dn ___,0,$000
 dn ___,0,$000
 dn ___,0,$000
 dn ___,0,$000
 dn ___,0,$000
 dn ___,0,$000
 dn ___,0,$000
 dn ___,0,$000

P17:
 dn D_4,2,$000
 dn ___,0,$000
 dn ___,0,$000
 dn ___,0,$000
 dn ___,0,$000
 dn ___,0,$000
 dn ___,0,$000
 dn ___,0,$000
 dn ___,0,$000
 dn ___,0,$000
 dn ___,0,$000
 dn ___,0,$000
 dn ___,0,$000
 dn ___,0,$000
 dn ___,0,$000
 dn ___,0,$000
 dn A_3,2,$000
 dn ___,0,$000
 dn ___,0,$000
 dn ___,0,$000
 dn ___,0,$000
 dn ___,0,$000
 dn ___,0,$000
 dn ___,0,$000
 dn ___,0,$000
 dn ___,0,$000
 dn ___,0,$000
 dn ___,0,$000
 dn ___,0,$000
 dn ___,0,$000
 dn ___,0,$000
 dn ___,0,$000
 dn C_4,2,$000
 dn ___,0,$000
 dn ___,0,$000
 dn ___,0,$000
 dn ___,0,$000
 dn ___,0,$000
 dn ___,0,$000
 dn ___,0,$000
 dn ___,0,$000
 dn ___,0,$000
 dn ___,0,$000
 dn ___,0,$000
 dn ___,0,$000
 dn ___,0,$000
 dn ___,0,$000
 dn ___,0,$000
 dn E_4,2,$000
 dn ___,0,$000
 dn ___,0,$000
 dn ___,0,$000
 dn ___,0,$000
 dn ___,0,$000
 dn ___,0,$000
 dn ___,0,$000
 dn ___,0,$000
 dn ___,0,$000
 dn ___,0,$000
 dn ___,0,$000
 dn ___,0,$000
 dn ___,0,$000
 dn ___,0,$000
 dn ___,0,$000

P18:
 dn D_4,2,$000
 dn ___,0,$000
 dn ___,0,$000
 dn ___,0,$000
 dn ___,0,$000
 dn ___,0,$000
 dn ___,0,$000
 dn ___,0,$000
 dn F_4,2,$000
 dn ___,0,$000
 dn ___,0,$000
 dn ___,0,$000
 dn ___,0,$000
 dn ___,0,$000
 dn ___,0,$000
 dn ___,0,$000
 dn F_4,2,$000
 dn ___,0,$000
 dn ___,0,$000
 dn ___,0,$000
 dn ___,0,$000
 dn ___,0,$000
 dn ___,0,$000
 dn ___,0,$000
 dn D_4,2,$000
 dn ___,0,$000
 dn ___,0,$000
 dn ___,0,$000
 dn E_4,2,$000
 dn ___,0,$000
 dn ___,0,$000
 dn ___,0,$000
 dn C_4,2,$000
 dn ___,0,$000
 dn ___,0,$000
 dn ___,0,$000
 dn D_4,2,$000
 dn ___,0,$000
 dn ___,0,$000
 dn ___,0,$000
 dn E_4,2,$000
 dn ___,0,$000
 dn ___,0,$000
 dn ___,0,$000
 dn F_4,2,$000
 dn ___,0,$000
 dn ___,0,$000
 dn ___,0,$000
 dn E_4,2,$000
 dn ___,0,$000
 dn ___,0,$000
 dn ___,0,$000
 dn D_4,2,$000
 dn ___,0,$000
 dn ___,0,$000
 dn ___,0,$000
 dn E_4,2,$000
 dn ___,0,$000
 dn ___,0,$000
 dn ___,0,$000
 dn F_4,2,$000
 dn ___,0,$000
 dn ___,0,$000
 dn ___,0,$000

P19:
 dn D_4,2,$000
 dn ___,0,$000
 dn ___,0,$000
 dn ___,0,$000
 dn ___,0,$000
 dn ___,0,$000
 dn ___,0,$000
 dn ___,0,$000
 dn E_4,2,$000
 dn ___,0,$000
 dn ___,0,$000
 dn ___,0,$000
 dn F_4,2,$000
 dn ___,0,$000
 dn ___,0,$000
 dn ___,0,$000
 dn D_4,2,$000
 dn ___,0,$000
 dn ___,0,$000
 dn ___,0,$000
 dn ___,0,$000
 dn ___,0,$000
 dn ___,0,$000
 dn ___,0,$000
 dn A_3,2,$000
 dn ___,0,$000
 dn ___,0,$000
 dn ___,0,$000
 dn ___,0,$000
 dn ___,0,$000
 dn A#3,2,$000
 dn ___,0,$000
 dn C_4,2,$000
 dn ___,0,$000
 dn ___,0,$000
 dn ___,0,$000
 dn ___,0,$000
 dn ___,0,$000
 dn ___,0,$000
 dn ___,0,$000
 dn D_4,2,$000
 dn ___,0,$000
 dn ___,0,$000
 dn ___,0,$000
 dn E_4,2,$000
 dn ___,0,$000
 dn ___,0,$000
 dn ___,0,$000
 dn E_4,2,$000
 dn ___,0,$000
 dn ___,0,$000
 dn ___,0,$000
 dn F_4,2,$000
 dn ___,0,$000
 dn ___,0,$000
 dn ___,0,$000
 dn E_4,2,$000
 dn ___,0,$000
 dn ___,0,$000
 dn ___,0,$000
 dn D_4,2,$000
 dn ___,0,$000
 dn ___,0,$000
 dn ___,0,$000

P20:
 dn A#4,2,$000
 dn ___,0,$000
 dn ___,0,$000
 dn A_4,2,$000
 dn ___,0,$000
 dn ___,0,$000
 dn G_4,2,$000
 dn ___,0,$000
 dn F_4,2,$000
 dn ___,0,$000
 dn G_4,2,$000
 dn ___,0,$000
 dn A_4,2,$000
 dn ___,0,$000
 dn ___,0,$000
 dn ___,0,$000
 dn G_4,2,$000
 dn ___,0,$000
 dn A_4,2,$000
 dn ___,0,$000
 dn A#4,2,$000
 dn ___,0,$000
 dn ___,0,$000
 dn ___,0,$000
 dn A_4,2,$000
 dn ___,0,$000
 dn G_4,2,$000
 dn ___,0,$000
 dn F_4,2,$000
 dn ___,0,$000
 dn ___,0,$000
 dn ___,0,$000
 dn D_4,2,$000
 dn ___,0,$000
 dn E_4,2,$000
 dn ___,0,$000
 dn F_4,2,$000
 dn ___,0,$000
 dn G_4,2,$000
 dn ___,0,$000
 dn A_4,2,$000
 dn ___,0,$000
 dn G_4,2,$000
 dn ___,0,$000
 dn F_4,2,$000
 dn ___,0,$000
 dn ___,0,$000
 dn ___,0,$000
 dn E_4,2,$000
 dn ___,0,$000
 dn F_4,2,$000
 dn ___,0,$000
 dn G_4,2,$000
 dn ___,0,$000
 dn ___,0,$000
 dn ___,0,$000
 dn A_4,2,$000
 dn ___,0,$000
 dn ___,0,$000
 dn ___,0,$000
 dn A#4,2,$000
 dn ___,0,$000
 dn ___,0,$000
 dn ___,0,$000

P21:
 dn F_4,2,$000
 dn ___,0,$000
 dn E_4,2,$000
 dn ___,0,$000
 dn D_4,2,$000
 dn ___,0,$000
 dn ___,0,$000
 dn ___,0,$000
 dn E_4,2,$000
 dn ___,0,$000
 dn ___,0,$000
 dn ___,0,$000
 dn F_4,2,$000
 dn ___,0,$000
 dn ___,0,$000
 dn ___,0,$000
 dn A_4,2,$000
 dn ___,0,$000
 dn ___,0,$000
 dn ___,0,$000
 dn G_4,2,$000
 dn ___,0,$000
 dn ___,0,$000
 dn ___,0,$000
 dn F_4,2,$000
 dn ___,0,$000
 dn ___,0,$000
 dn ___,0,$000
 dn E_4,2,$000
 dn ___,0,$000
 dn ___,0,$000
 dn ___,0,$000
 dn D_4,2,$000
 dn ___,0,$000
 dn ___,0,$000
 dn ___,0,$000
 dn E_4,2,$000
 dn ___,0,$000
 dn F_4,2,$000
 dn ___,0,$000
 dn G_4,2,$000
 dn ___,0,$000
 dn ___,0,$000
 dn ___,0,$000
 dn A_4,2,$000
 dn ___,0,$000
 dn ___,0,$000
 dn ___,0,$000
 dn G_4,2,$000
 dn ___,0,$000
 dn ___,0,$000
 dn ___,0,$000
 dn F_4,2,$000
 dn ___,0,$000
 dn ___,0,$000
 dn ___,0,$000
 dn E_4,2,$000
 dn ___,0,$000
 dn ___,0,$000
 dn ___,0,$000
 dn D_4,2,$000
 dn ___,0,$000
 dn ___,0,$000
 dn ___,0,$000

P22:
 dn A#4,2,$000
 dn ___,0,$000
 dn ___,0,$000
 dn ___,0,$000
 dn ___,0,$000
 dn ___,0,$000
 dn A_4,2,$000
 dn ___,0,$000
 dn G_4,2,$000
 dn ___,0,$000
 dn ___,0,$000
 dn ___,0,$000
 dn ___,0,$000
 dn ___,0,$000
 dn F_4,2,$000
 dn ___,0,$000
 dn F_4,2,$000
 dn ___,0,$000
 dn ___,0,$000
 dn ___,0,$000
 dn ___,0,$000
 dn ___,0,$000
 dn E_4,2,$000
 dn ___,0,$000
 dn F_4,2,$000
 dn ___,0,$000
 dn ___,0,$000
 dn ___,0,$000
 dn ___,0,$000
 dn ___,0,$000
 dn D_4,2,$000
 dn ___,0,$000
 dn A_4,2,$000
 dn ___,0,$000
 dn ___,0,$000
 dn ___,0,$000
 dn G_4,2,$000
 dn ___,0,$000
 dn ___,0,$000
 dn ___,0,$000
 dn F_4,2,$000
 dn ___,0,$000
 dn ___,0,$000
 dn ___,0,$000
 dn E_4,2,$000
 dn ___,0,$000
 dn ___,0,$000
 dn ___,0,$000
 dn E_4,2,$000
 dn ___,0,$000
 dn ___,0,$000
 dn ___,0,$000
 dn D_4,2,$000
 dn ___,0,$000
 dn ___,0,$000
 dn ___,0,$000
 dn E_4,2,$000
 dn ___,0,$000
 dn ___,0,$000
 dn ___,0,$000
 dn F_4,2,$000
 dn ___,0,$000
 dn ___,0,$000
 dn ___,0,$000

P23:
 dn D_4,2,$000
 dn ___,0,$000
 dn ___,0,$000
 dn ___,0,$000
 dn ___,0,$000
 dn ___,0,$000
 dn F_4,2,$000
 dn ___,0,$000
 dn E_4,2,$000
 dn ___,0,$000
 dn ___,0,$000
 dn ___,0,$000
 dn ___,0,$000
 dn ___,0,$000
 dn D_4,2,$000
 dn ___,0,$000
 dn D_4,2,$000
 dn ___,0,$000
 dn ___,0,$000
 dn ___,0,$000
 dn ___,0,$000
 dn ___,0,$000
 dn ___,0,$000
 dn ___,0,$000
 dn F_4,2,$000
 dn ___,0,$000
 dn ___,0,$000
 dn ___,0,$000
 dn ___,0,$000
 dn ___,0,$000
 dn E_4,2,$000
 dn ___,0,$000
 dn F_4,2,$000
 dn ___,0,$000
 dn ___,0,$000
 dn ___,0,$000
 dn E_4,2,$000
 dn ___,0,$000
 dn ___,0,$000
 dn ___,0,$000
 dn D_4,2,$000
 dn ___,0,$000
 dn ___,0,$000
 dn ___,0,$000
 dn ___,0,$000
 dn ___,0,$000
 dn ___,0,$000
 dn ___,0,$000
 dn C_4,2,$000
 dn ___,0,$000
 dn ___,0,$000
 dn ___,0,$000
 dn D_4,2,$000
 dn ___,0,$000
 dn ___,0,$000
 dn ___,0,$000
 dn E_4,2,$000
 dn ___,0,$000
 dn ___,0,$000
 dn ___,0,$000
 dn D_4,2,$000
 dn ___,0,$000
 dn ___,0,$000
 dn ___,0,$000

P24:
 dn ___,0,$000
 dn ___,0,$000
 dn G_4,2,$000
 dn ___,0,$000
 dn ___,0,$000
 dn ___,0,$000
 dn F_4,2,$000
 dn ___,0,$000
 dn ___,0,$000
 dn ___,0,$000
 dn E_4,2,$000
 dn ___,0,$000
 dn ___,0,$000
 dn ___,0,$000
 dn D_4,2,$000
 dn ___,0,$000
 dn F_4,2,$000
 dn ___,0,$000
 dn ___,0,$000
 dn ___,0,$000
 dn D_4,2,$000
 dn ___,0,$000
 dn ___,0,$000
 dn ___,0,$000
 dn A#3,2,$000
 dn ___,0,$000
 dn ___,0,$000
 dn ___,0,$000
 dn D_4,2,$000
 dn ___,0,$000
 dn ___,0,$000
 dn ___,0,$000
 dn G_4,2,$000
 dn ___,0,$000
 dn ___,0,$000
 dn ___,0,$000
 dn F_4,2,$000
 dn ___,0,$000
 dn ___,0,$000
 dn ___,0,$000
 dn D_4,2,$000
 dn ___,0,$000
 dn ___,0,$000
 dn ___,0,$000
 dn F_4,2,$000
 dn ___,0,$000
 dn ___,0,$000
 dn ___,0,$000
 dn E_4,2,$000
 dn ___,0,$000
 dn ___,0,$000
 dn ___,0,$000
 dn F_4,2,$000
 dn ___,0,$000
 dn ___,0,$000
 dn ___,0,$000
 dn E_4,2,$000
 dn ___,0,$000
 dn ___,0,$000
 dn ___,0,$000
 dn F_4,2,$000
 dn ___,0,$000
 dn ___,0,$000
 dn ___,0,$000

P25:
 dn D_4,2,$000
 dn ___,0,$000
 dn ___,0,$000
 dn ___,0,$000
 dn E_4,2,$000
 dn ___,0,$000
 dn ___,0,$000
 dn ___,0,$000
 dn D_4,2,$000
 dn ___,0,$000
 dn ___,0,$000
 dn ___,0,$000
 dn E_4,2,$000
 dn ___,0,$000
 dn ___,0,$000
 dn ___,0,$000
 dn F_4,2,$000
 dn ___,0,$000
 dn ___,0,$000
 dn ___,0,$000
 dn G_4,2,$000
 dn ___,0,$000
 dn ___,0,$000
 dn ___,0,$000
 dn F_4,2,$000
 dn ___,0,$000
 dn ___,0,$000
 dn ___,0,$000
 dn D_4,2,$000
 dn ___,0,$000
 dn ___,0,$000
 dn ___,0,$000
 dn G_4,2,$000
 dn ___,0,$000
 dn ___,0,$000
 dn ___,0,$000
 dn ___,0,$000
 dn ___,0,$000
 dn F_4,2,$000
 dn ___,0,$000
 dn ___,0,$000
 dn ___,0,$000
 dn D_4,2,$000
 dn ___,0,$000
 dn ___,0,$000
 dn ___,0,$000
 dn ___,0,$000
 dn ___,0,$000
 dn A_4,2,$000
 dn ___,0,$000
 dn ___,0,$000
 dn ___,0,$000
 dn A#4,2,$000
 dn ___,0,$000
 dn ___,0,$000
 dn ___,0,$000
 dn A_4,2,$000
 dn ___,0,$000
 dn ___,0,$000
 dn ___,0,$000
 dn A_4,2,$000
 dn ___,0,$000
 dn ___,0,$000
 dn ___,0,$000

P26:
 dn A_4,2,$000
 dn ___,0,$000
 dn ___,0,$000
 dn ___,0,$000
 dn D_4,2,$000
 dn ___,0,$000
 dn ___,0,$000
 dn ___,0,$000
 dn F_4,2,$000
 dn ___,0,$000
 dn ___,0,$000
 dn ___,0,$000
 dn G_4,2,$000
 dn ___,0,$000
 dn ___,0,$000
 dn ___,0,$000
 dn G_4,2,$000
 dn ___,0,$000
 dn ___,0,$000
 dn ___,0,$000
 dn A_4,2,$000
 dn ___,0,$000
 dn ___,0,$000
 dn ___,0,$000
 dn G_4,2,$000
 dn ___,0,$000
 dn ___,0,$000
 dn ___,0,$000
 dn F_4,2,$000
 dn ___,0,$000
 dn ___,0,$000
 dn ___,0,$000
 dn F_4,2,$000
 dn ___,0,$000
 dn ___,0,$000
 dn ___,0,$000
 dn G_4,2,$000
 dn ___,0,$000
 dn ___,0,$000
 dn ___,0,$000
 dn F_4,2,$000
 dn ___,0,$000
 dn ___,0,$000
 dn ___,0,$000
 dn D_4,2,$000
 dn ___,0,$000
 dn ___,0,$000
 dn ___,0,$000
 dn E_4,2,$000
 dn ___,0,$000
 dn ___,0,$000
 dn ___,0,$000
 dn A_4,2,$000
 dn ___,0,$000
 dn ___,0,$000
 dn ___,0,$000
 dn E_4,2,$000
 dn ___,0,$000
 dn ___,0,$000
 dn ___,0,$000
 dn F_4,2,$000
 dn ___,0,$000
 dn ___,0,$000
 dn ___,0,$000

P27:
 dn A_4,2,$000
 dn ___,0,$000
 dn ___,0,$000
 dn ___,0,$000
 dn F_4,2,$000
 dn ___,0,$000
 dn ___,0,$000
 dn ___,0,$000
 dn E_4,2,$000
 dn ___,0,$000
 dn ___,0,$000
 dn ___,0,$000
 dn D_4,2,$000
 dn ___,0,$000
 dn ___,0,$000
 dn ___,0,$000
 dn G_4,2,$000
 dn ___,0,$000
 dn ___,0,$000
 dn ___,0,$000
 dn F_4,2,$000
 dn ___,0,$000
 dn ___,0,$000
 dn ___,0,$000
 dn E_4,2,$000
 dn ___,0,$000
 dn ___,0,$000
 dn ___,0,$000
 dn F_4,2,$000
 dn ___,0,$000
 dn ___,0,$000
 dn ___,0,$000
 dn D_4,2,$000
 dn ___,0,$000
 dn ___,0,$000
 dn ___,0,$000
 dn E_4,2,$000
 dn ___,0,$000
 dn ___,0,$000
 dn ___,0,$000
 dn F_4,2,$000
 dn ___,0,$000
 dn ___,0,$000
 dn ___,0,$000
 dn G_4,2,$000
 dn ___,0,$000
 dn ___,0,$000
 dn ___,0,$000
 dn A_4,2,$000
 dn ___,0,$000
 dn ___,0,$000
 dn ___,0,$000
 dn G_4,2,$000
 dn ___,0,$000
 dn ___,0,$000
 dn ___,0,$000
 dn F_4,2,$000
 dn ___,0,$000
 dn ___,0,$000
 dn ___,0,$000
 dn G_4,2,$000
 dn ___,0,$000
 dn A_4,2,$000
 dn ___,0,$000

P28:
 dn A#4,2,$000
 dn ___,0,$000
 dn ___,0,$000
 dn ___,0,$000
 dn C_5,2,$000
 dn ___,0,$000
 dn ___,0,$000
 dn ___,0,$000
 dn D_5,2,$000
 dn ___,0,$000
 dn ___,0,$000
 dn ___,0,$000
 dn A_4,2,$000
 dn ___,0,$000
 dn ___,0,$000
 dn ___,0,$000
 dn A_4,2,$000
 dn ___,0,$000
 dn ___,0,$000
 dn ___,0,$000
 dn C_5,2,$000
 dn ___,0,$000
 dn ___,0,$000
 dn ___,0,$000
 dn C_5,2,$000
 dn ___,0,$000
 dn ___,0,$000
 dn ___,0,$000
 dn A_4,2,$000
 dn ___,0,$000
 dn ___,0,$000
 dn ___,0,$000
 dn A#4,2,$000
 dn ___,0,$000
 dn ___,0,$000
 dn ___,0,$000
 dn G_4,2,$000
 dn ___,0,$000
 dn ___,0,$000
 dn ___,0,$000
 dn G_4,2,$000
 dn ___,0,$000
 dn ___,0,$000
 dn ___,0,$000
 dn A#4,2,$000
 dn ___,0,$000
 dn ___,0,$000
 dn ___,0,$000
 dn C_5,2,$000
 dn ___,0,$000
 dn ___,0,$000
 dn ___,0,$000
 dn A_4,2,$000
 dn ___,0,$000
 dn ___,0,$000
 dn ___,0,$000
 dn C_5,2,$000
 dn ___,0,$000
 dn ___,0,$000
 dn ___,0,$000
 dn C_5,2,$000
 dn ___,0,$000
 dn ___,0,$000
 dn ___,0,$000

P29:
 dn A#4,2,$000
 dn ___,0,$000
 dn ___,0,$000
 dn ___,0,$000
 dn A_4,2,$000
 dn ___,0,$000
 dn ___,0,$000
 dn ___,0,$000
 dn A#4,2,$000
 dn ___,0,$000
 dn ___,0,$000
 dn ___,0,$000
 dn A_4,2,$000
 dn ___,0,$000
 dn ___,0,$000
 dn ___,0,$000
 dn F_4,2,$000
 dn ___,0,$000
 dn ___,0,$000
 dn ___,0,$000
 dn G_4,2,$000
 dn ___,0,$000
 dn ___,0,$000
 dn ___,0,$000
 dn A_4,2,$000
 dn ___,0,$000
 dn ___,0,$000
 dn ___,0,$000
 dn A#4,2,$000
 dn ___,0,$000
 dn ___,0,$000
 dn ___,0,$000
 dn C_5,2,$000
 dn ___,0,$000
 dn ___,0,$000
 dn ___,0,$000
 dn A#4,2,$000
 dn ___,0,$000
 dn ___,0,$000
 dn ___,0,$000
 dn A_4,2,$000
 dn ___,0,$000
 dn ___,0,$000
 dn ___,0,$000
 dn G_4,2,$000
 dn ___,0,$000
 dn ___,0,$000
 dn ___,0,$000
 dn A_4,2,$000
 dn ___,0,$000
 dn ___,0,$000
 dn ___,0,$000
 dn F_4,2,$000
 dn ___,0,$000
 dn ___,0,$000
 dn ___,0,$000
 dn C_4,2,$000
 dn ___,0,$000
 dn ___,0,$000
 dn ___,0,$000
 dn F_4,2,$000
 dn ___,0,$000
 dn ___,0,$000
 dn ___,0,$000

P30:
 dn G_4,2,$000
 dn ___,0,$000
 dn ___,0,$000
 dn ___,0,$000
 dn ___,0,$000
 dn ___,0,$000
 dn ___,0,$000
 dn ___,0,$000
 dn ___,0,$000
 dn ___,0,$000
 dn ___,0,$000
 dn ___,0,$000
 dn ___,0,$000
 dn ___,0,$000
 dn ___,0,$000
 dn ___,0,$000
 dn F_4,2,$000
 dn ___,0,$000
 dn ___,0,$000
 dn ___,0,$000
 dn ___,0,$000
 dn ___,0,$000
 dn ___,0,$000
 dn ___,0,$000
 dn ___,0,$000
 dn ___,0,$000
 dn ___,0,$000
 dn ___,0,$000
 dn ___,0,$000
 dn ___,0,$000
 dn ___,0,$000
 dn ___,0,$000
 dn D_4,2,$000
 dn ___,0,$000
 dn ___,0,$000
 dn ___,0,$000
 dn ___,0,$000
 dn ___,0,$000
 dn ___,0,$000
 dn ___,0,$000
 dn ___,0,$000
 dn ___,0,$000
 dn ___,0,$000
 dn ___,0,$000
 dn ___,0,$000
 dn ___,0,$000
 dn ___,0,$000
 dn ___,0,$000
 dn E_4,2,$000
 dn ___,0,$000
 dn ___,0,$000
 dn ___,0,$000
 dn ___,0,$000
 dn ___,0,$000
 dn ___,0,$000
 dn ___,0,$000
 dn ___,0,$000
 dn ___,0,$000
 dn ___,0,$000
 dn ___,0,$000
 dn ___,0,$000
 dn ___,0,$000
 dn ___,0,$000
 dn ___,0,$000

P31:
 dn C_4,2,$000
 dn ___,0,$000
 dn ___,0,$000
 dn ___,0,$000
 dn ___,0,$000
 dn ___,0,$000
 dn ___,0,$000
 dn ___,0,$000
 dn ___,0,$000
 dn ___,0,$000
 dn ___,0,$000
 dn ___,0,$000
 dn ___,0,$000
 dn ___,0,$000
 dn ___,0,$000
 dn ___,0,$000
 dn F_4,2,$000
 dn ___,0,$000
 dn ___,0,$000
 dn ___,0,$000
 dn ___,0,$000
 dn ___,0,$000
 dn ___,0,$000
 dn ___,0,$000
 dn ___,0,$000
 dn ___,0,$000
 dn ___,0,$000
 dn ___,0,$000
 dn ___,0,$000
 dn ___,0,$000
 dn ___,0,$000
 dn ___,0,$000
 dn C_4,2,$000
 dn ___,0,$000
 dn ___,0,$000
 dn ___,0,$000
 dn ___,0,$000
 dn ___,0,$000
 dn ___,0,$000
 dn ___,0,$000
 dn ___,0,$000
 dn ___,0,$000
 dn ___,0,$000
 dn ___,0,$000
 dn ___,0,$000
 dn ___,0,$000
 dn ___,0,$000
 dn ___,0,$000
 dn A_3,2,$000
 dn ___,0,$000
 dn ___,0,$000
 dn ___,0,$000
 dn ___,0,$000
 dn ___,0,$000
 dn ___,0,$000
 dn ___,0,$000
 dn ___,0,$000
 dn ___,0,$000
 dn ___,0,$000
 dn ___,0,$000
 dn ___,0,$000
 dn ___,0,$000
 dn ___,0,$000
 dn ___,0,$000

P32:
 dn G_4,1,$000
 dn ___,0,$000
 dn ___,0,$000
 dn ___,0,$000
 dn ___,0,$000
 dn ___,0,$000
 dn ___,0,$000
 dn ___,0,$000
 dn ___,0,$000
 dn ___,0,$000
 dn G_4,1,$000
 dn ___,0,$000
 dn ___,0,$000
 dn ___,0,$000
 dn ___,0,$000
 dn ___,0,$000
 dn F_4,1,$000
 dn ___,0,$000
 dn ___,0,$000
 dn ___,0,$000
 dn ___,0,$000
 dn ___,0,$000
 dn ___,0,$000
 dn ___,0,$000
 dn ___,0,$000
 dn ___,0,$000
 dn F_4,1,$000
 dn ___,0,$000
 dn ___,0,$000
 dn ___,0,$000
 dn ___,0,$000
 dn ___,0,$000
 dn D_4,1,$000
 dn ___,0,$000
 dn ___,0,$000
 dn ___,0,$000
 dn ___,0,$000
 dn ___,0,$000
 dn ___,0,$000
 dn ___,0,$000
 dn ___,0,$000
 dn ___,0,$000
 dn D_4,1,$000
 dn ___,0,$000
 dn ___,0,$000
 dn ___,0,$000
 dn ___,0,$000
 dn ___,0,$000
 dn C_4,1,$000
 dn ___,0,$000
 dn ___,0,$000
 dn ___,0,$000
 dn ___,0,$000
 dn ___,0,$000
 dn ___,0,$000
 dn ___,0,$000
 dn ___,0,$000
 dn ___,0,$000
 dn C_4,1,$000
 dn ___,0,$000
 dn ___,0,$000
 dn ___,0,$000
 dn ___,0,$000
 dn ___,0,$000

P33:
 dn G_4,1,$000
 dn ___,0,$000
 dn ___,0,$000
 dn ___,0,$000
 dn ___,0,$000
 dn ___,0,$000
 dn ___,0,$000
 dn ___,0,$000
 dn ___,0,$000
 dn ___,0,$000
 dn G_4,1,$000
 dn ___,0,$000
 dn ___,0,$000
 dn ___,0,$000
 dn ___,0,$000
 dn ___,0,$000
 dn D_4,1,$000
 dn ___,0,$000
 dn ___,0,$000
 dn ___,0,$000
 dn ___,0,$000
 dn ___,0,$000
 dn ___,0,$000
 dn ___,0,$000
 dn ___,0,$000
 dn ___,0,$000
 dn D_4,1,$000
 dn ___,0,$000
 dn ___,0,$000
 dn ___,0,$000
 dn ___,0,$000
 dn ___,0,$000
 dn F_4,1,$000
 dn ___,0,$000
 dn ___,0,$000
 dn ___,0,$000
 dn ___,0,$000
 dn ___,0,$000
 dn ___,0,$000
 dn ___,0,$000
 dn ___,0,$000
 dn ___,0,$000
 dn F_4,1,$000
 dn ___,0,$000
 dn ___,0,$000
 dn ___,0,$000
 dn ___,0,$000
 dn ___,0,$000
 dn C_4,1,$000
 dn ___,0,$000
 dn ___,0,$000
 dn ___,0,$000
 dn ___,0,$000
 dn ___,0,$000
 dn ___,0,$000
 dn ___,0,$000
 dn ___,0,$000
 dn ___,0,$000
 dn C_4,1,$000
 dn ___,0,$000
 dn ___,0,$000
 dn ___,0,$000
 dn ___,0,$000
 dn ___,0,$000

P34:
 dn G_4,1,$000
 dn ___,0,$000
 dn ___,0,$000
 dn ___,0,$000
 dn ___,0,$000
 dn ___,0,$000
 dn D_5,1,$000
 dn ___,0,$000
 dn G_4,1,$000
 dn ___,0,$000
 dn G_4,1,$000
 dn ___,0,$000
 dn ___,0,$000
 dn ___,0,$000
 dn ___,0,$000
 dn ___,0,$000
 dn D_4,1,$000
 dn ___,0,$000
 dn ___,0,$000
 dn ___,0,$000
 dn ___,0,$000
 dn ___,0,$000
 dn A_4,1,$000
 dn ___,0,$000
 dn D_4,1,$000
 dn ___,0,$000
 dn D_4,1,$000
 dn ___,0,$000
 dn ___,0,$000
 dn ___,0,$000
 dn ___,0,$000
 dn ___,0,$000
 dn F_4,1,$000
 dn ___,0,$000
 dn ___,0,$000
 dn ___,0,$000
 dn ___,0,$000
 dn ___,0,$000
 dn C_5,1,$000
 dn ___,0,$000
 dn F_4,1,$000
 dn ___,0,$000
 dn F_4,1,$000
 dn ___,0,$000
 dn ___,0,$000
 dn ___,0,$000
 dn ___,0,$000
 dn ___,0,$000
 dn C_4,1,$000
 dn ___,0,$000
 dn ___,0,$000
 dn ___,0,$000
 dn ___,0,$000
 dn ___,0,$000
 dn G_4,1,$000
 dn ___,0,$000
 dn C_4,1,$000
 dn ___,0,$000
 dn C_4,1,$000
 dn ___,0,$000
 dn ___,0,$000
 dn ___,0,$000
 dn ___,0,$000
 dn ___,0,$000

P35:
 dn G_4,1,$000
 dn ___,0,$000
 dn ___,0,$000
 dn A_4,1,$000
 dn ___,0,$000
 dn ___,0,$000
 dn ___,0,$000
 dn ___,0,$000
 dn D_5,1,$000
 dn ___,0,$000
 dn ___,0,$000
 dn ___,0,$000
 dn ___,0,$000
 dn ___,0,$000
 dn B_4,1,$000
 dn ___,0,$000
 dn D_4,1,$000
 dn ___,0,$000
 dn ___,0,$000
 dn E_4,1,$000
 dn ___,0,$000
 dn ___,0,$000
 dn ___,0,$000
 dn ___,0,$000
 dn A_4,1,$000
 dn ___,0,$000
 dn ___,0,$000
 dn ___,0,$000
 dn ___,0,$000
 dn ___,0,$000
 dn F#4,1,$000
 dn ___,0,$000
 dn F_4,1,$000
 dn ___,0,$000
 dn ___,0,$000
 dn G_4,1,$000
 dn ___,0,$000
 dn ___,0,$000
 dn ___,0,$000
 dn ___,0,$000
 dn C_5,1,$000
 dn ___,0,$000
 dn ___,0,$000
 dn ___,0,$000
 dn ___,0,$000
 dn ___,0,$000
 dn A_4,1,$000
 dn ___,0,$000
 dn C_4,1,$000
 dn ___,0,$000
 dn ___,0,$000
 dn D_4,1,$000
 dn ___,0,$000
 dn ___,0,$000
 dn ___,0,$000
 dn ___,0,$000
 dn G_4,1,$000
 dn ___,0,$000
 dn ___,0,$000
 dn ___,0,$000
 dn ___,0,$000
 dn ___,0,$000
 dn E_4,1,$000
 dn ___,0,$000

P36:
 dn A#4,1,$000
 dn ___,0,$000
 dn A#4,1,$000
 dn ___,0,$000
 dn ___,0,$000
 dn ___,0,$000
 dn ___,0,$000
 dn ___,0,$000
 dn A#4,1,$000
 dn ___,0,$000
 dn F_5,1,$000
 dn ___,0,$000
 dn ___,0,$000
 dn ___,0,$000
 dn ___,0,$000
 dn ___,0,$000
 dn F_4,1,$000
 dn ___,0,$000
 dn F_4,1,$000
 dn ___,0,$000
 dn ___,0,$000
 dn ___,0,$000
 dn ___,0,$000
 dn ___,0,$000
 dn F_4,1,$000
 dn ___,0,$000
 dn C_5,1,$000
 dn ___,0,$000
 dn ___,0,$000
 dn ___,0,$000
 dn ___,0,$000
 dn ___,0,$000
 dn D_4,1,$000
 dn ___,0,$000
 dn D_4,1,$000
 dn ___,0,$000
 dn ___,0,$000
 dn ___,0,$000
 dn ___,0,$000
 dn ___,0,$000
 dn D_4,1,$000
 dn ___,0,$000
 dn A_4,1,$000
 dn ___,0,$000
 dn ___,0,$000
 dn ___,0,$000
 dn ___,0,$000
 dn ___,0,$000
 dn C_4,1,$000
 dn ___,0,$000
 dn C_4,1,$000
 dn ___,0,$000
 dn ___,0,$000
 dn ___,0,$000
 dn ___,0,$000
 dn ___,0,$000
 dn C_4,1,$000
 dn ___,0,$000
 dn G_4,1,$000
 dn ___,0,$000
 dn ___,0,$000
 dn ___,0,$000
 dn ___,0,$000
 dn ___,0,$000

P40:
 dn D_4,1,$000
 dn ___,0,$000
 dn ___,0,$000
 dn ___,0,$000
 dn ___,0,$000
 dn ___,0,$000
 dn D_4,1,$000
 dn ___,0,$000
 dn ___,0,$000
 dn ___,0,$000
 dn ___,0,$000
 dn ___,0,$000
 dn ___,0,$000
 dn ___,0,$000
 dn D_4,1,$000
 dn ___,0,$000
 dn A#4,1,$000
 dn ___,0,$000
 dn ___,0,$000
 dn ___,0,$000
 dn ___,0,$000
 dn ___,0,$000
 dn A#4,1,$000
 dn ___,0,$000
 dn ___,0,$000
 dn ___,0,$000
 dn ___,0,$000
 dn ___,0,$000
 dn ___,0,$000
 dn ___,0,$000
 dn A#4,1,$000
 dn ___,0,$000
 dn G_4,1,$000
 dn ___,0,$000
 dn ___,0,$000
 dn ___,0,$000
 dn ___,0,$000
 dn ___,0,$000
 dn G_4,1,$000
 dn ___,0,$000
 dn ___,0,$000
 dn ___,0,$000
 dn ___,0,$000
 dn ___,0,$000
 dn ___,0,$000
 dn ___,0,$000
 dn G_4,1,$000
 dn ___,0,$000
 dn A_4,1,$000
 dn ___,0,$000
 dn ___,0,$000
 dn ___,0,$000
 dn ___,0,$000
 dn ___,0,$000
 dn A_4,1,$000
 dn ___,0,$000
 dn ___,0,$000
 dn ___,0,$000
 dn ___,0,$000
 dn ___,0,$000
 dn ___,0,$000
 dn ___,0,$000
 dn A_4,1,$000
 dn ___,0,$000

P42:
 dn D_4,1,$000
 dn ___,0,$000
 dn D_4,1,$000
 dn ___,0,$000
 dn ___,0,$000
 dn ___,0,$000
 dn ___,0,$000
 dn ___,0,$000
 dn D_4,1,$000
 dn ___,0,$000
 dn A_4,1,$000
 dn ___,0,$000
 dn ___,0,$000
 dn ___,0,$000
 dn ___,0,$000
 dn ___,0,$000
 dn C_4,1,$000
 dn ___,0,$000
 dn C_4,1,$000
 dn ___,0,$000
 dn ___,0,$000
 dn ___,0,$000
 dn ___,0,$000
 dn ___,0,$000
 dn C_4,1,$000
 dn ___,0,$000
 dn G_4,1,$000
 dn ___,0,$000
 dn ___,0,$000
 dn ___,0,$000
 dn ___,0,$000
 dn ___,0,$000
 dn A#4,1,$000
 dn ___,0,$000
 dn A#4,1,$000
 dn ___,0,$000
 dn ___,0,$000
 dn ___,0,$000
 dn ___,0,$000
 dn ___,0,$000
 dn A#4,1,$000
 dn ___,0,$000
 dn F_5,1,$000
 dn ___,0,$000
 dn ___,0,$000
 dn ___,0,$000
 dn ___,0,$000
 dn ___,0,$000
 dn A_4,1,$000
 dn ___,0,$000
 dn A_4,1,$000
 dn ___,0,$000
 dn ___,0,$000
 dn ___,0,$000
 dn ___,0,$000
 dn ___,0,$000
 dn A_4,1,$000
 dn ___,0,$000
 dn E_5,1,$000
 dn ___,0,$000
 dn ___,0,$000
 dn ___,0,$000
 dn ___,0,$000
 dn ___,0,$000

P45:
 dn A#4,1,$000
 dn ___,0,$000
 dn A#4,1,$000
 dn ___,0,$000
 dn ___,0,$000
 dn ___,0,$000
 dn ___,0,$000
 dn ___,0,$000
 dn A#4,1,$000
 dn ___,0,$000
 dn F_5,1,$000
 dn ___,0,$000
 dn ___,0,$000
 dn ___,0,$000
 dn ___,0,$000
 dn ___,0,$000
 dn F_4,1,$000
 dn ___,0,$000
 dn F_4,1,$000
 dn ___,0,$000
 dn ___,0,$000
 dn ___,0,$000
 dn ___,0,$000
 dn ___,0,$000
 dn F_4,1,$000
 dn ___,0,$000
 dn C_5,1,$000
 dn ___,0,$000
 dn ___,0,$000
 dn ___,0,$000
 dn ___,0,$000
 dn ___,0,$000
 dn C_4,1,$000
 dn ___,0,$000
 dn C_4,1,$000
 dn ___,0,$000
 dn ___,0,$000
 dn ___,0,$000
 dn ___,0,$000
 dn ___,0,$000
 dn C_4,1,$000
 dn ___,0,$000
 dn G_4,1,$000
 dn ___,0,$000
 dn ___,0,$000
 dn ___,0,$000
 dn ___,0,$000
 dn ___,0,$000
 dn F_4,1,$000
 dn ___,0,$000
 dn F_4,1,$000
 dn ___,0,$000
 dn ___,0,$000
 dn ___,0,$000
 dn ___,0,$000
 dn ___,0,$000
 dn F_4,1,$000
 dn ___,0,$000
 dn C_5,1,$000
 dn ___,0,$000
 dn ___,0,$000
 dn ___,0,$000
 dn ___,0,$000
 dn ___,0,$000

P47:
 dn F_3,1,$000
 dn ___,0,$000
 dn ___,0,$000
 dn ___,0,$000
 dn ___,0,$000
 dn ___,0,$000
 dn ___,0,$000
 dn ___,0,$000
 dn ___,0,$000
 dn ___,0,$000
 dn ___,0,$000
 dn ___,0,$000
 dn ___,0,$000
 dn ___,0,$000
 dn ___,0,$000
 dn ___,0,$000
 dn ___,0,$000
 dn ___,0,$000
 dn ___,0,$000
 dn ___,0,$000
 dn ___,0,$000
 dn ___,0,$000
 dn ___,0,$000
 dn ___,0,$000
 dn ___,0,$000
 dn ___,0,$000
 dn ___,0,$000
 dn ___,0,$000
 dn ___,0,$000
 dn ___,0,$000
 dn ___,0,$000
 dn ___,0,$000
 dn F_3,1,$000
 dn ___,0,$000
 dn ___,0,$000
 dn ___,0,$000
 dn ___,0,$000
 dn ___,0,$000
 dn ___,0,$000
 dn ___,0,$000
 dn ___,0,$000
 dn ___,0,$000
 dn ___,0,$000
 dn ___,0,$000
 dn ___,0,$000
 dn ___,0,$000
 dn ___,0,$000
 dn ___,0,$000
 dn ___,0,$000
 dn ___,0,$000
 dn ___,0,$000
 dn ___,0,$000
 dn ___,0,$000
 dn ___,0,$000
 dn ___,0,$000
 dn ___,0,$000
 dn ___,0,$000
 dn ___,0,$000
 dn ___,0,$000
 dn ___,0,$000
 dn ___,0,$000
 dn ___,0,$000
 dn ___,0,$000
 dn ___,0,$000

P48:
 dn C_6,3,$000
 dn ___,0,$000
 dn ___,0,$000
 dn ___,0,$000
 dn ___,0,$000
 dn ___,0,$000
 dn ___,0,$000
 dn ___,0,$000
 dn ___,0,$000
 dn ___,0,$000
 dn ___,0,$000
 dn ___,0,$000
 dn ___,0,$000
 dn ___,0,$000
 dn ___,0,$000
 dn ___,0,$000
 dn E_3,1,$000
 dn ___,0,$000
 dn ___,0,$000
 dn ___,0,$000
 dn ___,0,$000
 dn ___,0,$000
 dn ___,0,$000
 dn ___,0,$000
 dn ___,0,$000
 dn ___,0,$000
 dn ___,0,$000
 dn ___,0,$000
 dn ___,0,$000
 dn ___,0,$000
 dn ___,0,$000
 dn ___,0,$000
 dn C_6,3,$000
 dn ___,0,$000
 dn ___,0,$000
 dn ___,0,$000
 dn ___,0,$000
 dn ___,0,$000
 dn ___,0,$000
 dn ___,0,$000
 dn ___,0,$000
 dn ___,0,$000
 dn ___,0,$000
 dn ___,0,$000
 dn ___,0,$000
 dn ___,0,$000
 dn ___,0,$000
 dn ___,0,$000
 dn E_3,1,$000
 dn ___,0,$000
 dn ___,0,$000
 dn ___,0,$000
 dn ___,0,$000
 dn ___,0,$000
 dn ___,0,$000
 dn ___,0,$000
 dn ___,0,$000
 dn ___,0,$000
 dn ___,0,$000
 dn ___,0,$000
 dn ___,0,$000
 dn ___,0,$000
 dn ___,0,$000
 dn ___,0,$000

P49:
 dn C_6,3,$000
 dn ___,0,$000
 dn ___,0,$000
 dn ___,0,$000
 dn ___,0,$000
 dn ___,0,$000
 dn ___,0,$000
 dn ___,0,$000
 dn E_3,1,$000
 dn ___,0,$000
 dn ___,0,$000
 dn ___,0,$000
 dn ___,0,$000
 dn ___,0,$000
 dn ___,0,$000
 dn ___,0,$000
 dn E_3,1,$000
 dn ___,0,$000
 dn ___,0,$000
 dn ___,0,$000
 dn ___,0,$000
 dn ___,0,$000
 dn ___,0,$000
 dn ___,0,$000
 dn E_3,1,$000
 dn ___,0,$000
 dn ___,0,$000
 dn ___,0,$000
 dn ___,0,$000
 dn ___,0,$000
 dn ___,0,$000
 dn ___,0,$000
 dn C_6,3,$000
 dn ___,0,$000
 dn ___,0,$000
 dn ___,0,$000
 dn E_3,1,$000
 dn ___,0,$000
 dn ___,0,$000
 dn ___,0,$000
 dn F#4,2,$000
 dn ___,0,$000
 dn ___,0,$000
 dn ___,0,$000
 dn E_3,1,$000
 dn ___,0,$000
 dn ___,0,$000
 dn ___,0,$000
 dn E_3,1,$000
 dn ___,0,$000
 dn ___,0,$000
 dn ___,0,$000
 dn E_3,1,$000
 dn ___,0,$000
 dn ___,0,$000
 dn ___,0,$000
 dn F#4,2,$000
 dn ___,0,$000
 dn ___,0,$000
 dn ___,0,$000
 dn E_3,1,$000
 dn ___,0,$000
 dn ___,0,$000
 dn ___,0,$000

P50:
 dn C_6,3,$000
 dn ___,0,$000
 dn ___,0,$000
 dn ___,0,$000
 dn E_3,1,$000
 dn ___,0,$000
 dn ___,0,$000
 dn ___,0,$000
 dn F#4,2,$000
 dn ___,0,$000
 dn ___,0,$000
 dn ___,0,$000
 dn E_3,1,$000
 dn ___,0,$000
 dn ___,0,$000
 dn ___,0,$000
 dn C_6,3,$000
 dn ___,0,$000
 dn ___,0,$000
 dn ___,0,$000
 dn E_3,1,$000
 dn ___,0,$000
 dn ___,0,$000
 dn ___,0,$000
 dn F#4,2,$000
 dn ___,0,$000
 dn ___,0,$000
 dn ___,0,$000
 dn E_3,1,$000
 dn ___,0,$000
 dn ___,0,$000
 dn ___,0,$000
 dn C_6,3,$000
 dn ___,0,$000
 dn ___,0,$000
 dn ___,0,$000
 dn E_3,1,$000
 dn ___,0,$000
 dn ___,0,$000
 dn ___,0,$000
 dn F#4,2,$000
 dn ___,0,$000
 dn ___,0,$000
 dn ___,0,$000
 dn E_3,1,$000
 dn ___,0,$000
 dn ___,0,$000
 dn ___,0,$000
 dn C_6,3,$000
 dn ___,0,$000
 dn ___,0,$000
 dn ___,0,$000
 dn E_3,1,$000
 dn ___,0,$000
 dn ___,0,$000
 dn ___,0,$000
 dn F#4,2,$000
 dn ___,0,$000
 dn ___,0,$000
 dn ___,0,$000
 dn E_3,1,$000
 dn ___,0,$000
 dn ___,0,$000
 dn ___,0,$000

P52:
 dn C_6,3,$000
 dn ___,0,$000
 dn E_3,1,$000
 dn ___,0,$000
 dn E_3,1,$000
 dn ___,0,$000
 dn C_6,3,$000
 dn ___,0,$000
 dn F#4,2,$000
 dn ___,0,$000
 dn E_3,1,$000
 dn ___,0,$000
 dn E_3,1,$000
 dn ___,0,$000
 dn E_3,1,$000
 dn ___,0,$000
 dn C_6,3,$000
 dn ___,0,$000
 dn E_3,1,$000
 dn ___,0,$000
 dn E_3,1,$000
 dn ___,0,$000
 dn C_6,3,$000
 dn ___,0,$000
 dn F#4,2,$000
 dn ___,0,$000
 dn E_3,1,$000
 dn ___,0,$000
 dn E_3,1,$000
 dn ___,0,$000
 dn E_3,1,$000
 dn ___,0,$000
 dn C_6,3,$000
 dn ___,0,$000
 dn E_3,1,$000
 dn ___,0,$000
 dn E_3,1,$000
 dn ___,0,$000
 dn C_6,3,$000
 dn ___,0,$000
 dn F#4,2,$000
 dn ___,0,$000
 dn E_3,1,$000
 dn ___,0,$000
 dn E_3,1,$000
 dn ___,0,$000
 dn E_3,1,$000
 dn ___,0,$000
 dn C_6,3,$000
 dn ___,0,$000
 dn E_3,1,$000
 dn ___,0,$000
 dn E_3,1,$000
 dn ___,0,$000
 dn C_6,3,$000
 dn ___,0,$000
 dn F#4,2,$000
 dn ___,0,$000
 dn E_3,1,$000
 dn ___,0,$000
 dn E_3,1,$000
 dn ___,0,$000
 dn E_3,1,$000
 dn ___,0,$000

P53:
 dn C_6,3,$000
 dn ___,0,$000
 dn ___,0,$000
 dn ___,0,$000
 dn E_3,1,$000
 dn ___,0,$000
 dn ___,0,$000
 dn ___,0,$000
 dn F#4,2,$000
 dn ___,0,$000
 dn ___,0,$000
 dn ___,0,$000
 dn E_3,1,$000
 dn ___,0,$000
 dn ___,0,$000
 dn ___,0,$000
 dn C_6,3,$000
 dn ___,0,$000
 dn ___,0,$000
 dn ___,0,$000
 dn E_3,1,$000
 dn ___,0,$000
 dn ___,0,$000
 dn ___,0,$000
 dn F#4,2,$000
 dn ___,0,$000
 dn ___,0,$000
 dn ___,0,$000
 dn E_3,1,$000
 dn ___,0,$000
 dn ___,0,$000
 dn ___,0,$000
 dn C_6,3,$000
 dn ___,0,$000
 dn ___,0,$000
 dn ___,0,$000
 dn E_3,1,$000
 dn ___,0,$000
 dn ___,0,$000
 dn ___,0,$000
 dn F#4,2,$000
 dn ___,0,$000
 dn ___,0,$000
 dn ___,0,$000
 dn E_3,1,$000
 dn ___,0,$000
 dn ___,0,$000
 dn ___,0,$000
 dn F#4,2,$000
 dn ___,0,$000
 dn F#4,2,$000
 dn ___,0,$000
 dn F#4,2,$000
 dn ___,0,$000
 dn F#4,2,$000
 dn ___,0,$000
 dn F#4,2,$000
 dn ___,0,$000
 dn F#4,2,$000
 dn ___,0,$000
 dn F#4,2,$000
 dn ___,0,$000
 dn C_6,3,$000
 dn ___,0,$000

P56:
 dn C_6,3,$000
 dn ___,0,$000
 dn ___,0,$000
 dn ___,0,$000
 dn ___,0,$000
 dn ___,0,$000
 dn ___,0,$000
 dn ___,0,$000
 dn E_3,1,$000
 dn ___,0,$000
 dn ___,0,$000
 dn ___,0,$000
 dn ___,0,$000
 dn ___,0,$000
 dn ___,0,$000
 dn ___,0,$000
 dn F#4,2,$000
 dn ___,0,$000
 dn ___,0,$000
 dn ___,0,$000
 dn ___,0,$000
 dn ___,0,$000
 dn ___,0,$000
 dn ___,0,$000
 dn E_3,1,$000
 dn ___,0,$000
 dn ___,0,$000
 dn ___,0,$000
 dn ___,0,$000
 dn ___,0,$000
 dn ___,0,$000
 dn ___,0,$000
 dn C_6,3,$000
 dn ___,0,$000
 dn ___,0,$000
 dn ___,0,$000
 dn ___,0,$000
 dn ___,0,$000
 dn ___,0,$000
 dn ___,0,$000
 dn E_3,1,$000
 dn ___,0,$000
 dn ___,0,$000
 dn ___,0,$000
 dn ___,0,$000
 dn ___,0,$000
 dn ___,0,$000
 dn ___,0,$000
 dn F#4,2,$000
 dn ___,0,$000
 dn ___,0,$000
 dn ___,0,$000
 dn ___,0,$000
 dn ___,0,$000
 dn ___,0,$000
 dn ___,0,$000
 dn E_3,1,$000
 dn ___,0,$000
 dn ___,0,$000
 dn ___,0,$000
 dn ___,0,$000
 dn ___,0,$000
 dn ___,0,$000
 dn ___,0,$000

duty_instruments:
itSquareinst1:
db 0
db 64
db 193
dw 0
db 128

itSquareinst2:
db 0
db 128
db 168
dw 0
db 128



wave_instruments:
itWaveinst1:
db 0
db 32
db 0
dw 0
db 128



noise_instruments:
itNoiseinst1:
db 99
dw 0
db 72
ds 2

itNoiseinst2:
db 194
dw 0
db 80
ds 2

itNoiseinst3:
db 241
dw 0
db 88
ds 2



routines:
__hUGE_Routine_0:

__end_hUGE_Routine_0:
ret

__hUGE_Routine_1:

__end_hUGE_Routine_1:
ret

__hUGE_Routine_2:

__end_hUGE_Routine_2:
ret

__hUGE_Routine_3:

__end_hUGE_Routine_3:
ret

__hUGE_Routine_4:

__end_hUGE_Routine_4:
ret

__hUGE_Routine_5:

__end_hUGE_Routine_5:
ret

__hUGE_Routine_6:

__end_hUGE_Routine_6:
ret

__hUGE_Routine_7:

__end_hUGE_Routine_7:
ret

__hUGE_Routine_8:

__end_hUGE_Routine_8:
ret

__hUGE_Routine_9:

__end_hUGE_Routine_9:
ret

__hUGE_Routine_10:

__end_hUGE_Routine_10:
ret

__hUGE_Routine_11:

__end_hUGE_Routine_11:
ret

__hUGE_Routine_12:

__end_hUGE_Routine_12:
ret

__hUGE_Routine_13:

__end_hUGE_Routine_13:
ret

__hUGE_Routine_14:

__end_hUGE_Routine_14:
ret

__hUGE_Routine_15:

__end_hUGE_Routine_15:
ret

waves:
wave0: db 255,238,221,204,187,170,153,136,119,102,85,68,51,34,17,0

